/* XPM */
static char * maximize_active_xpm[] = {
"24 25 2 1",
" 	c #808080  s active_color_1",
".	c #000000 s active_text_color",
"                        ",
"                        ",
"                        ",
"                        ",
"                        ",
"                        ",
"        .........       ",
"        .........       ",
"        ..     ..       ",
"        ..     ..       ",
"        ..     ..       ",
"        ..     ..       ",
"        ..     ..       ",
"        .........       ",
"        .........       ",
"                        ",
"                        ",
"                        ",
"                        ",
"                        ",
"                        ",
"                        ",
"                        ",
"                        ",
"                        "};
