/* XPM */
static char * shade_active_xpm[] = {
"24 25 2 1",
" 	c #808080  s inactive_color_2",
".	c #000000 s inactive_text_color",
"                        ",
"                        ",
"                        ",
"                        ",
"                        ",
"                        ",
"                        ",
"            .           ",
"           ...          ",
"          .....         ",
"         ... ...        ",
"        ...   ...       ",
"        ..     ..       ",
"                        ",
"                        ",
"                        ",
"                        ",
"                        ",
"                        ",
"                        ",
"                        ",
"                        ",
"                        ",
"                        ",
"                        "};
