#define desk_toggled_width 8
#define desk_toggled_height 8
static unsigned char desk_toggled_bits[] = {
   0x00, 0x7c, 0x38, 0x38, 0x7c, 0x10, 0x10, 0x10 };
